<?xml version="1.0" encoding="UTF-8"?>
<!DOCTYPE svg PUBLIC "-//W3C//DTD SVG 1.1//EN" "http://www.w3.org/Graphics/SVG/1.1/DTD/svg11.dtd">
<!-- Creator: CorelDRAW 2021 (64-Bit) -->
<svg xmlns="http://www.w3.org/2000/svg" xml:space="preserve" width="131.526mm" height="96.2611mm" version="1.1" style="shape-rendering:geometricPrecision; text-rendering:geometricPrecision; image-rendering:optimizeQuality; fill-rule:evenodd; clip-rule:evenodd"
viewBox="0 0 3747.58 2742.77"
 xmlns:xlink="http://www.w3.org/1999/xlink"
 xmlns:xodm="http://www.corel.com/coreldraw/odm/2003">
 <defs>
  <style type="text/css">
   <![CDATA[
    .str0 {stroke:black;stroke-width:2.17;stroke-miterlimit:22.9256}
    .fil3 {fill:none;fill-rule:nonzero}
    .fil0 {fill:#080336}
    .fil15 {fill:#0B7E02}
    .fil1 {fill:#0B7E02;fill-rule:nonzero}
    .fil4 {fill:url(#id0)}
    .fil10 {fill:url(#id1)}
    .fil12 {fill:url(#id2)}
    .fil7 {fill:url(#id3)}
    .fil2 {fill:url(#id4)}
    .fil13 {fill:url(#id5)}
    .fil11 {fill:url(#id6)}
    .fil9 {fill:url(#id7)}
    .fil14 {fill:url(#id8)}
    .fil6 {fill:url(#id9)}
    .fil8 {fill:url(#id10)}
    .fil5 {fill:url(#id11)}
   ]]>
  </style>
  <linearGradient id="id0" gradientUnits="userSpaceOnUse" x1="2843.76" y1="1440.9" x2="2832.44" y2="2431.06">
   <stop offset="0" style="stop-opacity:1; stop-color:#0B7E02"/>
   <stop offset="0.568627" style="stop-opacity:1; stop-color:#859D01"/>
   <stop offset="1" style="stop-opacity:1; stop-color:#FFBD00"/>
  </linearGradient>
  <linearGradient id="id1" gradientUnits="userSpaceOnUse" xlink:href="#id0" x1="1128.02" y1="1432.72" x2="1234.86" y2="2654.65">
  </linearGradient>
  <linearGradient id="id2" gradientUnits="userSpaceOnUse" xlink:href="#id0" x1="2062.45" y1="1229.75" x2="2180.08" y2="2445.21">
  </linearGradient>
  <linearGradient id="id3" gradientUnits="userSpaceOnUse" xlink:href="#id0" x1="1118" y1="1411.91" x2="1338.37" y2="2633.41">
  </linearGradient>
  <linearGradient id="id4" gradientUnits="userSpaceOnUse" xlink:href="#id0" x1="3366.14" y1="977.68" x2="3472.48" y2="2214.68">
  </linearGradient>
  <linearGradient id="id5" gradientUnits="userSpaceOnUse" xlink:href="#id0" x1="2780.26" y1="1441.61" x2="2879.22" y2="2435.92">
  </linearGradient>
  <linearGradient id="id6" gradientUnits="userSpaceOnUse" xlink:href="#id0" x1="1690.44" y1="1555.93" x2="1778.5" y2="2360.16">
  </linearGradient>
  <linearGradient id="id7" gradientUnits="userSpaceOnUse" xlink:href="#id0" x1="411.37" y1="1341.56" x2="521.65" y2="2545.93">
  </linearGradient>
  <linearGradient id="id8" gradientUnits="userSpaceOnUse" xlink:href="#id0" x1="3375.66" y1="980.47" x2="3481.97" y2="2213.23">
  </linearGradient>
  <linearGradient id="id9" gradientUnits="userSpaceOnUse" xlink:href="#id0" x1="1687.11" y1="1544.09" x2="1777.42" y2="2373.3">
  </linearGradient>
  <linearGradient id="id10" gradientUnits="userSpaceOnUse" xlink:href="#id0" x1="409.79" y1="1323.68" x2="524.41" y2="2558.33">
  </linearGradient>
  <linearGradient id="id11" gradientUnits="userSpaceOnUse" xlink:href="#id0" x1="2051.36" y1="1238.08" x2="2307.44" y2="2441.49">
  </linearGradient>
 </defs>
 <g id="Camada_x0020_1">
  <metadata id="CorelCorpID_0Corel-Layer"/>
  <path class="fil0" d="M1033.53 2741.7c10.19,-1.11 22.33,-4.34 36.39,-7.48 44.64,-9.95 86.02,-29.09 130.66,-39.05 6.13,-0.13 13.18,-1.7 19.06,-3.01 32.89,-7.33 62.78,-22.67 94.5,-29.74 12.94,-2.88 24.3,-1.7 38.39,-4.85 0.96,-0.32 1.86,-0.67 2.72,-1.06l134.05 -60.49c19.73,-8.9 13.68,-36.21 6.68,-67.87 -9.18,-41.47 -18.79,-62.27 -32.26,-71.33l0 -0 -0.03 -0.01 -0.05 -0.03c-0.75,-0.5 -1.51,-0.96 -2.28,-1.39 -4.03,-2.68 -11.81,-8.9 -11.25,-16.85 3.87,-1.36 7.37,-2.75 10.54,-4.18l134.05 -60.49c7.46,-3.36 13.04,-6.93 17.17,-10.75l0.01 0 0 -0.01c16.48,-15.24 9.72,-34.45 6.36,-60.71 -3,-16.93 -6.57,-34.66 -10.48,-52.97 35.28,68.34 93.82,180.23 129.5,175.62 34.63,-4.48 85.66,-22.82 132.21,-28.83 55.38,-7.16 84.11,-11.21 98.93,-17.89l134.05 -60.49c18.39,-8.3 15.33,-20.66 15.18,-48.07 -2.55,-19.92 -3.79,-39.93 -4.52,-59.98 0.51,2.44 1.05,4.86 1.64,7.26 9.26,37.52 20.28,72.12 31.29,106.72 13.9,56.29 27.6,197.26 96.52,180.12 30.37,-7.55 63.38,-24.48 95.24,-36.13l112.09 -50.58c8.66,16.42 21.1,26.64 39.15,26.34 22.98,-0.38 82.97,-2.88 112.97,-16.43l134.06 -60.49c10.83,-4.89 17.76,-11.22 17.63,-19.4 -1.24,-2.79 -1.29,-5.59 -2.56,-9.31 -7.6,-63.59 -13.27,-130.29 -15.12,-195.24 63.77,55.67 74.06,208.09 75.53,297.42 0.14,8.42 -2.11,17.81 -1.97,26.23 0.26,15.89 10.02,24.15 36.5,23.71 36.1,-0.6 73.36,-4.02 109.46,-4.61 6.04,-0.1 11.34,-1.26 15.97,-3.35 44.69,-20.16 89.37,-40.32 134.06,-60.49 45.22,-20.4 27.59,-129.17 26.41,-201.25 -0.12,-7.18 -0.3,-14.25 -0.57,-21.26 42.61,81.26 101.56,111.58 208.52,97.76 55.43,-7.16 96.13,-19.07 133.26,-35.83l134.05 -60.49c24.44,-11.03 47.33,-24.16 71.87,-39.41 94.42,-58.48 66.35,-182.75 52.36,-291.79 -9.37,-73.08 -24.87,-146.61 -34.24,-219.69 -9.66,-75.37 -16.8,-149.85 -26.46,-225.22l1.15 -0.52c-52.32,-303.84 -78.72,-500.19 -276.86,-474.58 -34.61,4.47 -69.65,15.09 -104.27,19.56l-4.78 0.62c-36.46,4.71 -66.63,13 -91.52,24.22l-134.06 60.49c-140.52,63.41 -112.46,220.74 -94.71,359.18 2.96,15.88 5.73,31.61 8.31,47.32 -58.33,-14.98 -141.91,-21.12 -201.48,-20.14 -49.34,0.81 -98.59,7.24 -149.13,8.07 -9.62,0.16 -18.05,0.3 -27.69,-0.47 -3.94,0.07 -7.47,0.85 -10.63,2.28l-117.69 53.1 0 0 -0.08 0.03 -16.29 7.35c-1.18,0.54 -2.3,1.17 -3.37,1.87l-162.9 76.34c-17.09,-66.07 -42.15,-130.89 -56.82,-190.32 -0.18,-0.71 -0.33,-1.4 -0.48,-2.09 7.5,-1.45 14.94,-2.96 22.14,-4.76 2.56,-0.64 4.88,-1.42 6.94,-2.36l134.05 -60.49c11.11,-5.01 15.02,-14.16 12.1,-26.03 -8.97,-36.35 -29.75,-140.7 -74.14,-129.67 -62.72,15.59 -126.34,37.56 -190.21,53.51l-0.01 0 -0.07 0.02 -1.01 0.25c-26.87,6.68 -54.88,3.69 -81.76,10.38 -12.84,3.19 -25.99,10.19 -40.02,13.68 -18.69,4.65 -188.65,33.75 -207.34,38.4 -8.84,2.2 -17.03,4.49 -24.54,6.97 -40.55,1.77 -73.94,-1.54 -92.29,-13.14 -80.13,-50.67 52.95,-157.21 40.54,-263.42l-0.02 -0.16c0.07,-26.66 -5.26,-54.52 -8.67,-81.06 -5.98,-46.6 -18.01,-93.21 -23.99,-139.82 -6.16,-48.02 -9.86,-95.59 -16,-143.6l1.14 -0.52c-33.46,-169.66 -50.87,-286.84 -188.69,-295.51 21.18,-26.04 80.98,-99.79 91.62,-115.89l0.05 -0.07 0.04 -0.07c1.01,-1.48 1.97,-2.97 2.89,-4.48 11.41,-14.87 36,-59.39 33.7,-77.33 -1.07,-8.38 -8.1,-15.99 -16.02,-21.05 -13.15,-8.02 -53.02,-25.99 -68.36,-22.78 -1.44,0.4 -2.81,0.9 -4.13,1.5 -44.69,20.16 -89.37,40.33 -134.06,60.49 -0.73,0.33 -1.44,0.7 -2.14,1.08 -0.52,-41.99 -6.13,-99.79 -8.81,-120.67 -0.94,-16.85 -4.99,-48.38 -14.29,-54.73 -13.34,-9.59 -58.64,-3.74 -71.74,-2.05 -7.84,1.01 -23.91,3.09 -35.57,8.35l-134.06 60.49c-6.07,2.74 -10.94,6.35 -12.82,11.12 -5.48,13.92 2.6,58.13 5.95,74.67 0.64,3.53 1.31,7.06 1.98,10.59 -0.6,-0.06 -1.19,-0.09 -1.8,-0.1 -3.94,-0.14 -9.23,1.47 -15.08,4.11l-134.05 60.49c-15.84,7.15 -35.75,21.79 -43.67,29.02 -4.31,4.2 -9.65,9.76 -11.28,16.05 -16.26,-1.92 -61.44,-5.07 -61.44,-5.07 0,0 69.28,-36.97 89.21,-63.54 2.03,-2.13 3.46,-4.61 4.29,-7.4 0.9,-2.34 1.23,-4.54 0.87,-6.55l0 -0.01c-0.02,-1.89 -0.25,-3.87 -0.67,-5.95 -7.54,-36.62 -24.2,-141.56 -68.92,-132.28 -63.55,13.17 -128.25,32.74 -192.97,46.15 -27.07,5.61 -54.9,1.53 -81.98,7.15 -12.94,2.68 -26.33,9.15 -40.46,12.08 -18.83,3.9 -38.38,4.26 -57.21,8.16 -19.34,4.01 -35.6,8.62 -48.72,14.54l-134.05 60.49c-34,15.34 -46.92,39.47 -37.63,84.65 9.24,44.89 15.18,91.69 48.14,84.86 41.18,-8.54 83.76,-22.3 123.76,-30.59 30.6,-6.34 58.36,176.35 73.67,250.78 9.97,48.44 16.4,97.61 26.36,146.04 3.89,18.91 8.96,37.56 12.85,56.47 10.94,53.16 20.69,106.57 31.86,160.9 4.38,21.27 9.93,42.28 14.31,63.55 4.87,23.63 5.25,49.42 10.12,73.04 7.77,37.8 17.42,72.75 27.07,107.7 5.43,26.42 10.12,71.17 20.59,109.99l0 0.02c0,0 -0.51,31.73 -76.94,27.19l-0.05 -0c-69.72,-29.7 -170.09,-32.84 -275.7,-19.19 -17.07,2.21 -102.1,5.28 -154.5,28.93l-134.06 60.49c-24.55,11.08 -41.94,26.68 -41.8,48.81 7.98,100.08 15.65,197.75 28.25,296 1.38,10.78 4.12,22.61 5.5,33.4 1.11,18.13 3.56,37.31 4.84,56.62 3.09,109.23 15.29,223.38 29.28,332.42 1.23,9.58 3.66,19 4.88,28.6l2.15 16.77c10.88,75.34 21.29,147.07 35.6,220.74 36.84,192.57 35.13,217.16 124.66,205.59 42.97,-5.55 83.97,-16.95 125.76,-22.35l22.67 -2.93c32.34,-4.18 61.8,-10.18 88.44,-18 0,0 186.09,-29.53 284.63,21.69 43.55,22.64 83.66,49.35 121.6,71.1 61.32,35.16 136.03,47.55 155.28,42.53z"/>
  <path class="fil1" d="M1683.17 655.02c6.17,48.14 9.87,95.83 16.05,143.97 5.98,46.6 18.01,93.21 23.99,139.82 8.92,69.54 31.13,148.23 -65.26,190.2 -63.1,27.58 -115.27,45.97 -207.04,57.84 -195.46,25.26 -224.72,-51.74 -278.01,-249.92 -8.59,-29.18 -24.93,-52.71 -27.57,-82.66 -5.88,-45.85 -5.99,-94 -11.87,-139.85 -3.43,-26.74 -7.96,-52.57 -13.77,-79 -13.33,-103.92 -39.64,-224.03 202.3,-255.3 1.19,-0.15 3.57,-0.46 4.77,-0.62 34.56,-4.47 69.83,-12.9 104.38,-17.37 197.85,-25.57 215.12,99.59 253.21,292.74 -1.19,0.15 -1.19,0.15 -1.19,0.15zm-151.14 181.88c0,0 1.2,-0.15 1.2,-0.15 -17.12,-95.66 -36.62,-191.01 -56.02,-285.61 -9.46,-36.06 -24.97,-90.76 -84.55,-83.05 -132.3,17.1 -91.88,67.8 -94.55,122.51 -0.22,17.12 -0.66,32.71 1.5,49.52 7.94,61.89 14.48,131.74 36.53,190.26 0.19,1.52 0.39,3.05 0.59,4.58 1.76,13.75 -5.02,27.05 -3.15,41.57 9.41,73.35 -0.24,196.56 105.85,182.85 89.39,-11.55 120.32,-44.3 112.87,-102.37 -5.19,-40.49 -13.86,-79.77 -20.26,-120.11z"/>
  <path class="fil1" d="M874.5 227.48c20,-4.15 41.67,-6.17 61.67,-10.31 16.49,-3.42 23.02,-13.39 20.1,-27.57 -7.54,-36.62 -24.2,-141.55 -68.92,-132.28 -63.55,13.17 -128.25,32.74 -192.97,46.15 -27.07,5.61 -54.9,1.53 -81.97,7.14 -12.94,2.68 -26.33,9.15 -40.46,12.08 -18.83,3.9 -38.38,4.26 -57.21,8.17 -69.43,14.39 -99.23,36.57 -86.35,99.19 9.23,44.89 15.18,91.69 48.14,84.86 41.18,-8.54 83.76,-22.29 123.76,-30.58 30.61,-6.35 58.37,176.36 73.67,250.78 9.96,48.45 16.39,97.61 26.36,146.04 3.89,18.91 8.96,37.57 12.84,56.48 10.94,53.16 20.69,106.57 31.87,160.9 4.37,21.26 9.93,42.28 14.3,63.55 4.86,23.63 5.25,49.42 10.11,73.04 7.78,37.8 17.43,72.75 27.07,107.7 11.67,56.7 19.86,197.9 89.29,183.5 30.59,-6.34 64.19,-21.93 96.42,-32.31 35.95,-16.08 5.79,-91.12 -2.96,-133.65 -6.07,-29.52 -14.49,-58.58 -20.81,-89.29 -2.19,-10.63 -2.02,-21.75 -4.45,-33.57 -6.32,-30.71 -19.25,-63.76 -28.16,-95.17 -8.51,-41.34 -12.99,-81.06 -21.26,-121.23 -11.18,-54.33 -24.48,-107 -36.59,-159.94 -2.43,-11.8 -3.69,-23.87 -6.12,-35.68 -7.78,-37.8 -16.96,-76.54 -26.17,-115.28 -2.19,-10.63 -4.13,-20.08 -6.31,-30.71 -14.34,-69.71 -38.33,-138.64 -51.21,-201.25 -7.77,-37.8 28.99,-38.03 60.76,-44.62 11.76,-2.44 23.78,-3.7 35.55,-6.15z"/>
  <path class="fil1" d="M1466.96 831.66c25.23,-30.01 21.9,-84.31 -2.5,-113.99 -2.99,-4.48 -7.03,-7.61 -11.07,-10.74 -14.35,-7.87 -48.9,-3.4 -62.44,4.42 -5.8,1.97 -11.77,2.74 -16.22,5.75 -6.53,5.71 -10.54,12.31 -14.39,20.1 -10.5,22.03 -8.01,50.9 -0.33,73.02 7.84,23.31 25.48,38.06 49.94,39.76 19.67,2.33 44.39,-3.3 57.01,-18.32z"/>
  <path class="fil1 str0" d="M1555.49 270.1c15.04,-5.59 26.77,-18.06 34.77,-31.24 11.42,-14.86 36,-59.38 33.7,-77.33 -1.07,-8.38 -8.1,-15.99 -16.02,-21.04 -13.15,-8.03 -53.02,-25.99 -68.36,-22.78 -16.37,4.54 -24.95,22.68 -32.8,37.08 -6.82,13.03 -8.55,27.85 -12.82,41.79 -4.43,12.72 -11.39,24.57 -10.89,37.89 -0.08,18.26 26.79,29.38 43.2,34.55 10,2.36 19.99,4.71 29.22,1.08z"/>
  <path class="fil1" d="M1154.19 334.13c18.77,-4.85 47.76,-24.42 50.22,-42.98 2.2,-11.23 -3.07,-23.92 -8.02,-34.23 -6.61,-13.74 -35.28,-67.21 -46.34,-77.93 -5.54,-5.37 -13.46,-10.43 -21.96,-10.55 -14.61,-0.54 -47.91,23.23 -58.75,33.13 -4.31,4.21 -9.65,9.77 -11.27,16.05 -4.27,13.94 16.4,42.88 26.44,54.96 5.85,7.76 38.94,48.49 45.81,54.9 6.89,6.41 14.5,9.07 23.87,6.64z"/>
  <path class="fil1" d="M1352.03 251.77c16.45,-4 39.1,-6.92 44.57,-30.26 7.39,-27.37 -2.36,-131.72 -6.16,-161.41 -0.95,-16.85 -4.99,-48.38 -14.29,-54.73 -13.34,-9.59 -58.64,-3.74 -71.74,-2.04 -11.92,1.54 -42.91,5.54 -48.4,19.46 -5.48,13.92 2.61,58.13 5.94,74.68 8.09,44.22 18.57,88.12 30.24,131.88 2.39,9.11 7.63,21.65 13.58,20.88 1.2,-0.16 2.63,1.53 4.05,3.24 8.34,8.35 32.89,1.41 42.2,-1.69z"/>
  <path class="fil2" d="M3670.74 1424.01c0,0 0,0 1.19,-0.15 -52.31,-303.85 -78.71,-500.2 -276.86,-474.59 -34.61,4.47 -69.65,15.09 -104.26,19.56 -1.2,0.16 -3.58,0.46 -4.78,0.62 -242.3,31.32 -207.13,220.44 -186.23,383.41 7.76,41.63 14.19,82.21 19.57,124.15 9.22,71.89 12.77,146.96 21.99,218.86 4.81,46.88 23.01,84.73 33.78,130.84 68.02,312.78 103.1,434.92 298.86,409.62 91.91,-11.88 143.31,-36.8 205.13,-75.24 94.42,-58.48 66.35,-182.75 52.36,-291.8 -9.37,-73.08 -24.87,-146.61 -34.24,-219.69 -9.68,-75.49 -16.83,-150.1 -26.51,-225.58zm-140.54 266.64c9.34,63.35 20.92,125.19 29.06,188.7 11.68,91.07 -17.24,139.88 -106.77,151.45 -106.24,13.73 -105.31,-177.63 -120.06,-292.66 -2.92,-22.77 2.98,-43.01 0.22,-64.58 -0.31,-2.41 -0.62,-4.8 -0.92,-7.19 -26.47,-92.81 -38.07,-202.16 -50.52,-299.22 -3.38,-26.36 -4.05,-50.63 -5.05,-77.31 -1.22,-85.1 -45.69,-167.05 86.8,-184.18 59.68,-7.71 79.26,78.67 91.4,135.56 26.38,148.86 52.9,298.91 77.05,449.27 0,0 -1.2,0.16 -1.2,0.16z"/>
  <path class="fil3 str0" d="M3670.74 1424.01c0,0 0,0 1.19,-0.15 -52.31,-303.85 -78.71,-500.2 -276.86,-474.59 -34.61,4.47 -69.65,15.09 -104.26,19.56 -1.2,0.16 -3.58,0.46 -4.78,0.62 -242.3,31.32 -207.13,220.44 -186.23,383.41 7.76,41.63 14.19,82.21 19.57,124.15 9.22,71.89 12.77,146.96 21.99,218.86 4.81,46.88 23.01,84.73 33.78,130.84 68.02,312.78 103.1,434.92 298.86,409.62 91.91,-11.88 143.31,-36.8 205.13,-75.24 94.42,-58.48 66.35,-182.75 52.36,-291.8 -9.37,-73.08 -24.87,-146.61 -34.24,-219.69 -9.68,-75.49 -16.83,-150.1 -26.51,-225.58zm-140.54 266.64c9.34,63.35 20.92,125.19 29.06,188.7 11.68,91.07 -17.24,139.88 -106.77,151.45 -106.24,13.73 -105.31,-177.63 -120.06,-292.66 -2.92,-22.77 2.98,-43.01 0.22,-64.58 -0.31,-2.41 -0.62,-4.8 -0.92,-7.19 -26.47,-92.81 -38.07,-202.16 -50.52,-299.22 -3.38,-26.36 -4.05,-50.63 -5.05,-77.31 -1.22,-85.1 -45.69,-167.05 86.8,-184.18 59.68,-7.71 79.26,78.67 91.4,135.56 26.38,148.86 52.9,298.91 77.05,449.27 0,0 -1.2,0.16 -1.2,0.16z"/>
  <path class="fil4" d="M2559.95 1980.93c0.09,5.61 1.33,7.47 1.34,8.4 0.03,75.76 1.29,152.45 2.52,228.19 1.2,72.94 5.14,166.41 59.29,165.52 31.28,-0.52 131.11,-4.97 130.61,-35.82 -1.24,-2.79 -1.29,-5.59 -2.56,-9.32 -8.37,-70.01 -14.39,-143.81 -15.56,-214.87 -1.01,-61.72 21.88,-61.17 77.24,-62.08 115.52,-1.9 130.97,207.37 132.79,318.65 0.14,8.41 -2.11,17.81 -1.97,26.22 0.26,15.89 10.02,24.15 36.5,23.71 36.1,-0.6 73.37,-4.01 109.46,-4.61 64.98,-1.07 43.69,-125.13 42.39,-204.61 -0.91,-55.18 -5.33,-104.67 -29.1,-159.47 -16.25,-37.15 -101.95,-51.64 -102.14,-62.86 -0.09,-5.61 15.41,-15.22 22.55,-20.01 40.54,-24.06 77.36,-127.56 75.74,-226.68 -1.41,-86.04 6.39,-197.47 -65.72,-264.57 -36.67,-34 -174.11,-47.64 -260.75,-46.21 -49.34,0.81 -98.59,7.24 -149.13,8.07 -9.62,0.16 -18.05,0.3 -27.69,-0.47 -43.32,0.72 -37.05,89.47 -36.22,139.96 0.06,3.74 0.14,8.42 0.21,13.09 0.74,44.89 -3.36,88.92 -2.64,132.87 0.15,9.36 0.32,19.64 1.68,28.97 1.13,69.19 0.11,154.33 1.15,217.91zm374.41 -216.63c0.55,33.66 -0.09,68.29 -0.73,102.9 -1.36,63.64 -111.85,78.55 -180.38,83.42 -18.05,0.3 -25.35,-4.25 -25.58,-18.28 -6.06,-75.67 -8.51,-151.4 -13.37,-228.01 -2.62,-159.9 24.2,-139.78 113.24,-141.24 134.83,0.58 82.93,138.94 106.82,201.22z"/>
  <path class="fil5" d="M2322.4 1344.19c19.85,-4.94 41.46,-7.81 61.31,-12.75 16.36,-4.07 22.51,-14.31 19.04,-28.38 -8.97,-36.36 -29.76,-140.7 -74.14,-129.67 -63.08,15.68 -127.06,37.81 -191.31,53.78 -26.88,6.68 -54.88,3.7 -81.76,10.38 -12.84,3.19 -25.99,10.2 -40.01,13.68 -18.7,4.65 -188.65,33.75 -207.35,38.39 -68.92,17.14 -97.87,40.51 -82.54,102.67 10.99,44.56 18.77,91.16 51.49,83.03 40.88,-10.16 233.36,-53.58 273.07,-63.45 30.38,-7.56 65.3,174.19 83.53,248.07 11.86,48.09 20.22,97.04 32.08,145.11 4.63,18.77 10.44,37.24 15.07,56.01 13.02,52.77 24.87,105.83 38.17,159.77 5.21,21.11 11.59,41.92 16.8,63.03 5.79,23.46 7.19,49.25 12.98,72.7 9.25,37.52 20.28,72.12 31.29,106.72 13.89,56.29 27.6,197.26 96.52,180.13 30.37,-7.55 63.39,-24.48 95.24,-36.13 35.35,-17.51 2.24,-91.42 -8.18,-133.64 -7.23,-29.31 -16.8,-58.05 -24.32,-88.53 -2.6,-10.55 -2.88,-21.69 -5.77,-33.42 -7.52,-30.48 -21.75,-63.05 -31.9,-94.13 -10.13,-41.04 -16.17,-80.61 -26.01,-120.48 -13.31,-53.93 -28.67,-106.12 -42.86,-158.62 -2.89,-11.72 -4.63,-23.74 -7.52,-35.47 -9.26,-37.52 -19.96,-75.93 -30.69,-114.34 -2.6,-10.55 -4.92,-19.93 -7.52,-30.48 -17.08,-69.2 -43.77,-137.23 -59.11,-199.38 -9.26,-37.52 27.52,-39.2 59.06,-47.04 11.68,-2.9 23.65,-4.64 35.34,-7.55z"/>
  <path class="fil6" d="M1925.12 2083.93c-26.26,3.39 -57.86,-91.59 -72.34,-109.87 -68.29,-87.72 -132.41,-190.26 -187.53,-288.91 -23.62,-42.28 -55.91,-123.74 -94.11,-118.8 -23.88,3.09 -50.64,-6.89 -84.06,-2.57 -26.26,3.4 -156.48,19.39 -152.56,49.94 7.59,40.16 16.47,80.99 21.45,119.81 2.86,22.3 2.03,44.23 4.89,66.53 3.07,23.95 7.22,46.92 11.49,70.71 1.06,8.26 1.02,17.5 2.19,26.59 23.93,120.32 47.26,254.98 63.15,378.86 1.38,10.74 12.31,124.34 49.53,121.22 156.36,-20.21 137.47,-44.64 131.01,-95.01 -17.59,-99.31 -54.41,-225.52 -69.24,-341.15 -2.54,-19.82 -0.42,-41.08 -2.76,-59.25 -2.75,-21.47 -14.76,-67.77 -0.87,-101.48 11.91,7.7 15.77,18.95 20.83,30.05 50.54,110.17 95.24,212.69 155,319.14 26.75,47.76 105.95,220.54 150.11,214.83 34.62,-4.48 85.66,-22.82 132.21,-28.84 124.15,-16.05 114.38,-16.47 114.11,-65.96 -8.47,-66.06 -2.52,-133.16 -10.99,-199.22 -5.62,-43.78 -14.91,-87.91 -20.95,-134.98 -2.86,-22.3 -2.14,-45.06 -5.1,-68.19 -8.26,-64.41 -22.61,-128.88 -34.45,-192.83 -3.71,-28.91 -16.69,-177.51 -71.61,-170.41 -26.26,3.4 -144.61,7.77 -140.06,43.29 1.59,12.39 9.78,28.96 12.78,42.84 29.17,142.31 58.42,294.68 77.7,444.99 2.12,16.51 3.04,33.19 0.18,48.67z"/>
  <path class="fil7" d="M1282.72 1570.44c13.02,-2.64 20.49,-2.1 28.72,-3.93 34.07,-7.6 80.15,-5.5 68.67,-57.38 -11.49,-51.9 -21.92,-132.48 -65.4,-122.79 -3.53,0.79 -5.87,1.31 -9.39,2.09 -7.05,1.57 -14.1,3.15 -21.15,4.72 -24.67,5.5 -181.94,18.68 -205.44,23.92 -29.36,6.55 -60.05,7.21 -89.42,13.76 -50.51,11.26 -147.37,41.53 -139.28,78.08 3.39,15.33 8.87,28.97 12.27,44.3 3.91,17.69 6.65,35.64 10.57,53.33 48.55,219.36 112.9,437.67 162.49,661.75 3.13,14.15 4.56,26.21 7.96,41.53 5.48,24.77 15.93,49.67 21.41,74.44 6.27,28.3 10.18,57.13 16.45,85.44 5.22,23.58 12.78,46.65 18,70.24 1.83,8.26 3.92,17.69 4.56,26.21 6.79,30.66 19.71,61.19 29.11,92.51 9.65,32.5 33.54,23.46 71.14,15.08 44.64,-9.96 86.03,-29.09 130.66,-39.05 6.13,-0.13 13.18,-1.7 19.07,-3.01 32.88,-7.33 62.78,-22.67 94.5,-29.74 12.93,-2.88 24.29,-1.7 38.39,-4.85 22.97,-7.59 16.71,-35.9 9.4,-68.92 -20.88,-94.34 -43.99,-81.76 -109.78,-67.09 -25.85,5.76 -110.96,33.41 -125.19,-3.02 -13.31,-60.15 -44.63,-112.57 -58.2,-173.88 -5.75,-25.95 -11.49,-51.9 -16.97,-76.67 -9.66,-43.63 -24.28,-87.4 -34.2,-132.21 -13.05,-58.97 207.69,-47.56 191.25,-121.86 -33.41,-150.95 -48.42,-135.24 -136.54,-115.59 -25.85,5.76 -50.64,16.25 -75.32,21.75 -11.75,2.62 -20.37,-2.88 -23.5,-17.04 -9.92,-44.81 -10.05,-95.53 -19.97,-140.34 -3.65,-16.51 -10.83,-32.24 -14.49,-48.75 -16.7,-75.48 162.43,-73.48 209.62,-83.03z"/>
  <path class="fil8" d="M758.48 1801.92c-12.19,-66.63 -21.84,-132.38 -30.29,-198.29 -0.77,-5.99 -0.5,-13.33 -1.26,-19.32 -7.51,-48.98 -17.23,-96.44 -29.5,-144.8 -28.36,-116.92 -190.4,-141.04 -367.06,-118.21 -25.07,3.24 -196.72,8.36 -196.31,77.74 7.98,100.08 15.65,197.75 28.25,296 1.38,10.78 4.12,22.61 5.5,33.4 1.11,18.13 3.57,37.3 4.84,56.62 3.09,109.23 15.3,223.38 29.28,332.42 1.23,9.58 3.66,19 4.89,28.6 0.76,5.99 1.38,10.78 2.15,16.77 10.88,75.33 21.28,147.07 35.59,220.74 36.84,192.57 35.13,217.16 124.66,205.59 42.97,-5.55 83.98,-16.95 125.77,-22.36 7.16,-0.93 15.51,-2 22.67,-2.93 222.02,-28.7 308.04,-143.34 282.53,-342.25 -5.05,-77.31 -7.57,-153.72 -17.41,-230.4 -8,-62.31 -16.14,-125.83 -24.28,-189.33zm-348 -328.98c25.38,-0.85 50.75,-1.7 76.12,-2.53 50.9,-0.5 69.25,76.3 75.55,125.44 0.92,7.19 1.84,14.38 2.76,21.57 2.64,30.1 11.27,59.45 15.26,90.59 13.22,103.06 14.08,213.79 27.3,316.83 2.15,16.77 5.48,33.4 7.64,50.17 8.45,65.91 10.97,142.32 2.87,211.57 -8.41,66.86 -89.36,98.03 -146.65,105.43 -19.1,2.47 -26.73,-0.2 -29.33,-20.56 -15.22,-80.86 -26.87,-162.19 -39.7,-243.36 -4.58,-26.21 -15.28,-52.84 -18.66,-79.2 -3.07,-23.96 -2.41,-47.19 -5.33,-69.95 -9.53,-74.3 -23.22,-143.18 -32.75,-217.47 -35.5,-276.79 -41.74,-268.67 64.92,-288.54z"/>
  <path class="fil9" d="M742.73 1804.39c-12.05,-65.94 -21.82,-132.24 -30.35,-198.71 -0.83,-6.45 -0.45,-12.99 -1.23,-19.13 -7.37,-48.09 -17.53,-95.79 -29.19,-143.2 -32.15,-130.83 -250.39,-119 -349.57,-106.18 -13.63,1.76 -27.95,2.39 -41.72,3.81 -21.61,2.23 -43.34,5.23 -64.54,10.01 -21.06,4.74 -75.69,18.71 -76.16,47.47 7.84,98.32 15.56,196.7 28.11,294.56 1.44,11.18 4.07,22.2 5.5,33.4l0.07 0.53 0.03 0.53c1.15,18.87 3.59,37.66 4.84,56.54l0.02 0.61c3.12,110.51 15.1,221.23 29.15,330.83 1.23,9.58 3.66,18.98 4.89,28.6 0.71,5.51 1.33,11.04 2.12,16.53 10.53,73.55 21.44,147.01 35.46,219.99 7.33,38.12 14.07,76.65 22.41,114.55 4.12,18.7 9.58,43.31 18.62,60.26 14.02,26.28 40.2,21.27 65.96,17.94 42.26,-5.46 83.49,-16.89 125.76,-22.35 7.55,-0.98 15.11,-1.95 22.66,-2.93 197.72,-25.56 294.97,-120.05 268.77,-324.35l-0.07 -0.5 -0.03 -0.5c-5,-76.51 -7.55,-153.29 -17.32,-229.4 -8.07,-62.97 -16.15,-125.93 -24.23,-188.9zm-316.47 569.6c-15.19,-80.77 -26.53,-162.2 -39.68,-243.32 -4.37,-26.94 -15.22,-52.31 -18.74,-79.73 -2.99,-23.28 -2.36,-46.79 -5.33,-69.95 -9.33,-72.73 -23.42,-144.72 -32.75,-217.46 -6.8,-53.01 -14.48,-106.33 -19.88,-159.48 -2.65,-26.01 -6.14,-60.76 -0.76,-86.46 10.42,-49.79 57.07,-52.65 98.45,-60.36l1.18 -0.22 1.2 -0.04c25.37,-0.85 50.75,-1.69 76.3,-2.53 65.09,-0.63 85.2,88.76 91.69,139.38 0.92,7.19 1.84,14.37 2.77,21.56l0.07 0.64c2.64,30.15 11.33,59.82 15.19,89.95 13.49,105.19 13.81,211.68 27.29,316.84 2.15,16.78 5.49,33.39 7.64,50.17 8.97,69.94 11.39,145.4 2.88,215.55 -9.1,75.09 -94.86,110.88 -160.43,119.36 -27.71,3.58 -43.22,-4.86 -47.1,-33.9z"/>
  <path class="fil10" d="M1119.5 2563.73c6.91,30.61 19.59,60.21 28.59,90.34 1.98,6.63 3.71,11.04 10.86,11.5 11.05,0.7 30.48,-4.96 41.58,-7.44 44.37,-9.9 86.11,-29.12 130.67,-39.05l1.54 -0.34 1.58 -0.03c5.07,-0.11 11,-1.54 15.94,-2.64 32.24,-7.19 62.1,-22.52 94.5,-29.74 12.52,-2.79 25.12,-2.08 37.4,-4.63 10.78,-4.86 0.01,-42.33 -1.7,-50.07 -3.25,-14.66 -12.21,-56.4 -28.53,-63.09 -12.89,-5.29 -48.74,5.13 -62.25,8.14 -37.29,8.32 -123.96,37.16 -143.47,-12.79l-0.45 -1.16 -0.27 -1.21c-13.22,-59.68 -44.83,-113.45 -58.21,-173.88 -5.66,-25.55 -11.31,-51.11 -16.96,-76.67 -9.84,-44.44 -24.35,-87.73 -34.2,-132.22 -11.05,-49.94 75.25,-65.22 108.33,-74.09 17.2,-4.61 89,-20.27 82.91,-47.76 -4.94,-22.33 -20.28,-98.25 -40.95,-111.87 -14.46,-9.53 -60.68,4.88 -76.58,8.42 -25.51,5.69 -49.76,16.05 -75.32,21.75 -21.81,4.87 -37.81,-7.95 -42.5,-29.17 -10.24,-46.26 -9.78,-94.3 -19.96,-140.35 -3.65,-16.49 -10.8,-32.08 -14.49,-48.75 -12.3,-55.61 51.28,-76.63 93.16,-85.36 24.82,-5.17 50.21,-8.11 75.41,-10.65 17.09,-1.72 36.73,-2.77 53.45,-6.15 9.5,-1.93 19.49,-1.88 28.41,-3.87 14.29,-3.19 35.17,-4.72 47.98,-10.89 11.82,-5.69 11.23,-15.47 8.6,-27.42 -4.33,-19.56 -18.32,-116.91 -46.4,-110.65 -3.13,0.7 -6.26,1.4 -9.39,2.09 -7.05,1.57 -14.1,3.15 -21.14,4.72 -12.74,2.84 -27.86,4.14 -40.89,5.6 -21.35,2.4 -42.74,4.57 -64.12,6.75 -21.2,2.17 -42.41,4.31 -63.59,6.67 -11.53,1.29 -25.6,2.39 -36.86,4.89 -29.55,6.59 -60.01,7.2 -89.42,13.76 -29.22,6.51 -61.16,15.97 -88.45,28.49 -6.84,3.13 -41.02,20.22 -38.74,30.52 3.31,14.95 8.94,29.27 12.26,44.3 3.92,17.7 6.65,35.64 10.57,53.33 49.08,221.8 113.39,439.9 162.48,661.75 3.05,13.77 4.91,27.76 7.96,41.53 5.57,25.17 15.81,49.14 21.4,74.44 6.27,28.33 10.19,57.12 16.45,85.44 5.22,23.6 12.78,46.61 18,70.24 1.98,8.96 3.99,18.09 4.79,27.26z"/>
  <path class="fil11" d="M1390.28 1894.78c24.96,125.51 46.95,252.44 63.22,379.38 2.8,21.77 5.44,42.45 10.95,63.85 1.55,6.03 12.75,43.61 21.26,43.49 24.29,-3.14 99.11,-12.7 116.5,-31.24 8.73,-9.3 1.89,-33.62 0.29,-45.4 -20.32,-114.54 -54.41,-225.57 -69.29,-341.56 -2.54,-19.82 -0.27,-39.87 -2.76,-59.25 -4.7,-36.7 -14.72,-73.38 0.21,-109.62l7.29 -17.71 16.05 10.38c14.94,9.66 19.69,21.54 26.68,36.8 49.22,107.36 96.57,214.86 154.42,317.99 23.54,41.97 43.68,85.42 68.35,127.14 12.12,20.49 25.92,42.61 41.55,60.57 3.41,3.92 18.38,19.87 24.28,19.11 19.68,-2.54 40.46,-8.51 59.71,-13.47 23.85,-6.14 48.07,-12.21 72.5,-15.37 17.21,-2.23 83.16,-9.14 97.22,-18.08 5.33,-3.39 3.29,-23.45 3.02,-30.79 -8.33,-65.93 -2.46,-132.68 -10.89,-198.42 -5.79,-45.15 -15.15,-89.78 -20.95,-134.98 -2.9,-22.65 -2.21,-45.57 -5.11,-68.19 -8.27,-64.48 -22.48,-128.08 -34.31,-191.95l-0.08 -0.44 -0.05 -0.44c-4.21,-32.84 -7.66,-64.43 -16.2,-96.64 -3.57,-13.45 -17.65,-62.53 -37.58,-59.96 -24.32,3.14 -48.37,4.13 -72.89,8.11 -8.89,1.44 -48.39,8.92 -53.36,17.63 1.72,12.54 9.75,27.78 12.53,41.29 30.45,147.79 58.7,296.46 77.9,446.19 2.27,17.69 3.3,36 0.05,53.63l-2.11 11.46 -11.51 1.49c-27.06,3.5 -46.72,-35.41 -56.86,-55.36 -6.39,-12.56 -12.22,-25.38 -18.24,-38.11 -2.93,-6.19 -7.68,-17.1 -11.81,-22.39 -70.65,-90.49 -132.88,-190.72 -188.89,-290.95 -11.03,-19.74 -52.97,-114.03 -78.18,-110.77 -27.47,3.55 -55.05,-6.32 -84.05,-2.57 -25.8,3.34 -51.47,7.03 -76.94,12.48 -10.53,2.25 -52.95,12.26 -61.48,21.42 7.46,39.2 15.99,78.37 21.06,117.95 2.84,22.13 2.07,44.48 4.9,66.53 3,23.43 7.19,46.67 11.36,69.92l0.07 0.4 0.05 0.4c1.11,8.66 1.07,17.42 2.12,26.07z"/>
  <path class="fil12" d="M2465.38 2392.63c19.56,-11.57 -12.8,-97.48 -17.16,-115.14 -7.33,-29.72 -16.98,-58.8 -24.32,-88.54 -2.73,-11.05 -3.07,-22.45 -5.77,-33.42 -7.77,-31.5 -21.48,-62.09 -31.56,-93l-0.19 -0.56 -0.14 -0.57c-9.86,-39.92 -16.16,-80.59 -26.01,-120.49 -13.09,-53.08 -28.51,-105.51 -42.81,-158.45 -2.94,-11.92 -4.67,-23.91 -7.56,-35.64 -9.41,-38.15 -20,-76.03 -30.56,-113.87l-0.13 -0.47c-2.5,-10.16 -5.01,-20.32 -7.51,-30.48 -16.63,-67.41 -42.53,-132.16 -59.11,-199.38 -5.68,-23.05 1.25,-41.96 22.5,-52.75 14.59,-7.41 32.39,-9.71 48.2,-13.65 11.71,-2.91 23.65,-4.64 35.34,-7.55 20.28,-5.04 41.07,-7.71 61.32,-12.75 6.14,-1.53 8.97,-2.69 7.41,-9.03 -4.63,-18.78 -27.43,-124.81 -54.85,-117.99 -64.29,15.98 -127,37.79 -191.31,53.78 -27.17,6.75 -55.3,3.8 -81.76,10.37 -13.44,3.34 -26.16,10.23 -40.02,13.68 -12.39,3.08 -26.03,5.21 -38.62,7.52 -22.02,4.03 -44.05,7.96 -66.08,11.9 -21.99,3.93 -43.98,7.86 -65.96,11.88 -11.91,2.19 -24.96,4.19 -36.68,7.1 -19.9,4.95 -50.65,13.57 -64.78,29.54 -13.15,14.86 -10.53,35.91 -6.12,53.76 4.54,18.39 8.81,41.37 16.61,58.45 3.18,6.94 6.85,15.07 15.59,12.9 90.59,-22.52 182.5,-40.93 273.07,-63.45 21.23,-5.28 34.32,18.08 41.61,34.03 10.08,22.04 17.45,47.35 23.89,70.72 14.16,51.38 24.57,103.34 37.32,154.99 11.87,48.11 20.22,97.01 32.09,145.12 4.62,18.77 10.42,37.23 15.06,56 13.12,53.16 25.06,106.61 38.17,159.77 5.21,21.12 11.59,41.92 16.8,63.04 5.92,23.99 7.09,48.85 12.98,72.7 8.82,35.72 19.86,70.67 31.01,105.7l0.16 0.51 0.13 0.51c9.58,38.84 14.11,78.02 27.23,116.23 7.06,20.58 21.63,59.28 50.01,52.22 31.19,-7.75 62.17,-24.02 92.58,-35.25z"/>
  <path class="fil13" d="M2737.26 2347.5c-0.33,-1.45 -0.66,-2.89 -1.17,-4.43l-0.55 -1.6 -0.2 -1.68c-8.57,-71.71 -14.49,-144.28 -15.67,-216.52 -1.2,-73.21 30.74,-77.3 92.89,-78.32 136.35,-2.25 147.4,237.94 148.98,334.36 0.14,8.93 -2.11,17.67 -1.97,26.23 0.03,1.61 0.04,4.05 1.52,5.08 4.03,2.78 14.17,2.99 18.79,2.91 36.52,-0.6 72.94,-4 109.46,-4.61 26.37,-0.43 29.18,-38.69 30.42,-57.94 2.76,-43.04 -2.99,-87.25 -3.69,-130.41 -0.89,-54.85 -5.54,-102.26 -27.77,-153.34 -6.36,-14.63 -34.12,-26.85 -48.51,-32.76 -10.42,-4.29 -21.08,-8.05 -31.44,-12.43 -10.41,-4.39 -23.3,-10.53 -23.51,-23.79 -0.25,-15.39 18.33,-26 29.62,-33.57l0.36 -0.24 0.38 -0.23c21.61,-12.82 38.98,-53.92 46.71,-76.61 14.55,-42.69 21.94,-90.9 21.2,-136.05 -1.36,-83.42 6.34,-190.88 -60.61,-253.1 -37.56,-34.9 -196.46,-42.83 -249.66,-41.95 -49.78,0.82 -99.29,7.25 -149.12,8.07 -9.49,0.15 -18.8,0.25 -28.27,-0.45 -26.89,1.9 -20.28,105.81 -19.98,123.69 0.07,4.36 0.14,8.73 0.21,13.09 0.73,44.34 -3.37,88.58 -2.64,132.87 0.14,8.88 0.23,18.13 1.51,26.92l0.15 1.02 0.02 1.03c1.19,72.64 -0.04,145.3 1.15,217.92 0.05,3.23 1.34,5.04 1.35,8.65 0.05,75.99 1.28,151.97 2.52,227.94 0.51,31.16 -0.75,150.52 43.1,149.8 22.48,-0.37 45.68,-1.83 67.92,-5.19 7.94,-1.2 39.93,-7.03 46.5,-14.36zm-25.5 -414.35c-6.06,-75.83 -8.53,-151.9 -13.35,-227.81l-0.03 -0.75c-0.62,-37.68 -3.88,-115.04 27.78,-142.41 24.09,-20.83 70.98,-14.58 101.29,-15.08 63.64,0.27 100.75,28.61 110.82,90.89 3.63,22.5 3.57,45.51 4.2,68.23 0.44,15.99 1,37.34 6.75,52.33l1.02 2.64 0.05 2.84c0.57,34.49 -0.03,69 -0.74,103.49 -1.67,81.72 -135.83,94.82 -195.18,99.04l-0.43 0.03 -0.43 0.01c-23.05,0.38 -41.08,-7.71 -41.75,-33.45z"/>
  <path class="fil14" d="M3653.43 1410.13c-10.77,-63.03 -21.23,-126.39 -34.53,-188.87 -10.72,-50.4 -23.94,-104.59 -45.2,-151.63 -36.27,-80.23 -87.22,-116.05 -176.59,-104.5 -35.05,4.53 -69.13,15.02 -104.27,19.56 -1.59,0.21 -3.19,0.41 -4.78,0.62 -223.57,28.9 -194.34,195.05 -172.52,365.06 7.7,41.35 14.27,82.87 19.62,124.59 9.33,72.75 12.66,146.13 22.02,219.06 4.56,44.4 24.01,85.92 33.52,129.24 14.52,66.16 29.03,133.39 47.87,198.44 12.37,42.7 28.12,90.21 51.82,128.03 43.7,69.73 103.25,80.86 181.58,70.74 80.32,-10.38 131.26,-31.09 198.79,-72.98 42.04,-26.08 56.51,-66.7 59.3,-114.3 3.09,-52.83 -7.63,-109.41 -14.36,-161.85 -9.43,-73.53 -24.81,-146.15 -34.24,-219.69 -9.63,-75.1 -16.88,-150.48 -26.51,-225.59l-2.03 -15.86 0.52 -0.07zm-105.04 294.29c8.84,57.64 19.26,115.03 26.68,172.88 12.46,97.12 -19.7,156.32 -120.53,169.35 -69.16,8.94 -97.96,-53.68 -111.84,-110.07 -15.72,-63.9 -17.7,-131.31 -26.05,-196.41 -2.85,-22.26 2.91,-43.66 0.22,-64.58 -0.26,-2 -0.52,-4 -0.77,-6 -27.4,-96.62 -37.91,-200.9 -50.67,-300.41 -3.36,-26.22 -4.19,-52.37 -5.18,-78.93 -0.56,-38.86 -12.51,-83.01 -6.55,-120.51 8.91,-55.96 57.23,-73.47 107.24,-79.93 75.39,-9.74 97.23,92.86 109,148.07l0.11 0.55c26.53,149.69 52.99,299.41 77.09,449.52l2.62 16.29 -1.36 0.17z"/>
  <path class="fil15" d="M1311.13 234.96c3.56,1.13 6.55,3.44 9.25,6.33 5.97,1.3 21.64,-3.04 26.64,-4.7l0.62 -0.21 0.64 -0.15c11.44,-2.78 29.53,-4.37 32.81,-18.39l0.13 -0.52c6.97,-25.8 -2.74,-125.21 -6.58,-155.18l-0.07 -0.57 -0.03 -0.57c-0.48,-8.57 -3.44,-36.96 -8.01,-42.97 -8.5,-4.88 -49.13,-0.27 -60.09,1.15 -6.86,0.89 -31.52,4.46 -35.76,9.76 -3.42,9.78 4.52,53.63 6.92,65.49 8.07,44.11 18.51,87.6 29.98,130.79 0.59,2.21 2.05,6.82 3.55,9.74z"/>
  <path class="fil15" d="M1150.22 318.65c10.48,-2.71 36.85,-17.87 38.42,-29.61l0.06 -0.48 0.09 -0.48c1.34,-6.9 -3.8,-18.1 -6.73,-24.2 -7.46,-15.5 -32.44,-63.08 -43.07,-73.39 -2.6,-2.51 -7.26,-6.01 -11.24,-6.07 -9.99,0.38 -40.09,22.03 -47.5,28.8 -1.54,1.51 -6.17,6.09 -6.8,8.46 -0.65,8.81 17.67,33.91 23.28,40.67l0.47 0.6c6.99,9.27 14.69,18.45 22.08,27.4 6.27,7.6 14.79,18.84 21.86,25.42 2.92,2.72 5.14,3.9 9.07,2.88z"/>
  <path class="fil15" d="M1543.22 133.3c-9.84,3.33 -17.89,20.59 -22.4,29.03 -6,11.24 -7.86,26.62 -11.63,38.93l-0.19 0.58c-3.13,8.97 -10.36,22.6 -10.01,32.02l0.01 0.66c-0.03,7.54 24.91,16.9 31.54,19.07 5.26,1.26 14.16,3.57 19.27,1.56 11.53,-4.29 20.68,-14.46 26.85,-24.62l0.46 -0.75 0.53 -0.7c7.94,-10.35 32.12,-53.02 30.52,-65.53 -0.42,-3.31 -6.04,-7.85 -8.63,-9.51 -9.17,-5.59 -45.36,-22.06 -56.32,-20.76z"/>
  <path class="fil15" d="M1444.91 720.54c-9.89,-4.3 -37.51,-0.25 -46.01,4.66l-1.35 0.78 -1.48 0.5c-2.19,0.75 -9.33,2.41 -11.85,3.56 -4.24,4.02 -6.97,8.79 -9.53,14.1 -8.58,17.85 -5.81,42.69 0.4,60.88 5.82,17.03 17.79,27.74 35.96,28.99l0.77 0.07c13.55,1.61 33.74,-1.76 42.98,-12.74 20.27,-24.11 16.83,-69.86 -2.61,-93.51l-0.51 -0.61 -0.44 -0.66c-1.48,-2.21 -4.06,-4.28 -6.32,-6.03z"/>
  <path class="fil15" d="M976.32 1279.12c19.94,-10.76 -8.99,-97.75 -12.64,-115.53 -6.16,-29.93 -14.65,-59.33 -20.82,-89.28 -2.29,-11.13 -2.19,-22.53 -4.46,-33.58 -6.52,-31.74 -19.02,-62.79 -27.87,-94.02l-0.17 -0.57 -0.12 -0.58c-8.27,-40.22 -12.98,-81.04 -21.25,-121.23 -11,-53.47 -24.34,-106.39 -36.55,-159.76 -2.47,-12.01 -3.72,-24.04 -6.15,-35.86 -7.91,-38.43 -17,-76.63 -26.06,-114.81l-0.11 -0.47c-2.11,-10.24 -4.21,-20.47 -6.32,-30.71 -13.97,-67.91 -37.28,-133.53 -51.21,-201.25 -4.78,-23.22 2.88,-41.84 24.51,-51.78 14.84,-6.82 32.7,-8.42 48.63,-11.72 11.78,-2.44 23.77,-3.7 35.55,-6.15 20.44,-4.23 41.28,-6.08 61.68,-10.31 6.17,-1.28 9.03,-2.32 7.72,-8.68 -3.89,-18.91 -22.51,-125.58 -50.1,-119.86 -64.76,13.43 -128.18,32.72 -192.97,46.15 -27.37,5.68 -55.32,1.62 -81.98,7.14 -13.54,2.81 -26.5,9.19 -40.46,12.08 -18.95,3.93 -38.39,4.26 -57.21,8.16 -20.04,4.16 -51.06,11.55 -65.78,26.93 -13.69,14.3 -11.89,35.4 -8.19,53.37 3.81,18.52 7.18,41.62 14.3,58.97 2.89,7.04 6.23,15.3 15.01,13.47 41.62,-8.63 82.15,-21.96 123.76,-30.59 21.4,-4.44 33.56,19.39 40.22,35.6 9.19,22.38 15.57,47.93 21.08,71.49 12.12,51.82 20.49,104.07 31.19,156.1 9.98,48.47 16.4,97.59 26.36,146.04 3.89,18.91 8.96,37.55 12.85,56.47 11.02,53.56 20.85,107.34 31.86,160.9 4.38,21.27 9.93,42.28 14.31,63.55 4.97,24.16 5.17,49.02 10.12,73.04 7.4,35.98 17.06,71.28 26.81,106.67l0.14 0.51 0.1 0.52c8.05,39.12 11.04,78.39 22.63,117.04 6.24,20.79 19.26,59.97 47.84,54.05 31.41,-6.51 62.96,-21.52 93.73,-31.54z"/>
 </g>
</svg>
